<svg xmlns="http://www.w3.org/2000/svg" width="792" height="178" viewBox="0 0 792 178">
<rect width="792" height="178" fill="#0d1117" rx="6"/>
<text x="20" y="24" font-family="monospace" font-size="13" fill="#c9d1d9"><tspan fill="#39d353">whokrishverma@github</tspan> ~ $ ./contributions.sh</text>
<text x="0" y="63" font-family="monospace" font-size="9" fill="#8b949e">Mon</text>
<text x="0" y="91" font-family="monospace" font-size="9" fill="#8b949e">Wed</text>
<text x="0" y="119" font-family="monospace" font-size="9" fill="#8b949e">Fri</text>
<text x="30" y="32" font-family="monospace" font-size="9" fill="#8b949e">Jul</text>
<text x="58" y="32" font-family="monospace" font-size="9" fill="#8b949e">Aug</text>
<text x="128" y="32" font-family="monospace" font-size="9" fill="#8b949e">Sep</text>
<text x="184" y="32" font-family="monospace" font-size="9" fill="#8b949e">Oct</text>
<text x="240" y="32" font-family="monospace" font-size="9" fill="#8b949e">Nov</text>
<text x="310" y="32" font-family="monospace" font-size="9" fill="#8b949e">Dec</text>
<text x="366" y="32" font-family="monospace" font-size="9" fill="#8b949e">Jan</text>
<text x="422" y="32" font-family="monospace" font-size="9" fill="#8b949e">Feb</text>
<text x="478" y="32" font-family="monospace" font-size="9" fill="#8b949e">Mar</text>
<text x="548" y="32" font-family="monospace" font-size="9" fill="#8b949e">Apr</text>
<text x="604" y="32" font-family="monospace" font-size="9" fill="#8b949e">May</text>
<text x="674" y="32" font-family="monospace" font-size="9" fill="#8b949e">Jun</text>
<text x="730" y="32" font-family="monospace" font-size="9" fill="#8b949e">Jul</text>
<rect x="30" y="40" width="11" height="11" rx="2" fill="#161b22"><title>2025-07-20: 0 contributions</title></rect>
<rect x="30" y="54" width="11" height="11" rx="2" fill="#161b22"><title>2025-07-21: 0 contributions</title></rect>
<rect x="30" y="68" width="11" height="11" rx="2" fill="#161b22"><title>2025-07-22: 0 contributions</title></rect>
<rect x="30" y="82" width="11" height="11" rx="2" fill="#161b22"><title>2025-07-23: 0 contributions</title></rect>
<rect x="30" y="96" width="11" height="11" rx="2" fill="#161b22"><title>2025-07-24: 0 contributions</title></rect>
<rect x="30" y="110" width="11" height="11" rx="2" fill="#161b22"><title>2025-07-25: 0 contributions</title></rect>
<rect x="30" y="124" width="11" height="11" rx="2" fill="#161b22"><title>2025-07-26: 0 contributions</title></rect>
<rect x="44" y="40" width="11" height="11" rx="2" fill="#161b22"><title>2025-07-27: 0 contributions</title></rect>
<rect x="44" y="54" width="11" height="11" rx="2" fill="#161b22"><title>2025-07-28: 0 contributions</title></rect>
<rect x="44" y="68" width="11" height="11" rx="2" fill="#161b22"><title>2025-07-29: 0 contributions</title></rect>
<rect x="44" y="82" width="11" height="11" rx="2" fill="#161b22"><title>2025-07-30: 0 contributions</title></rect>
<rect x="44" y="96" width="11" height="11" rx="2" fill="#161b22"><title>2025-07-31: 0 contributions</title></rect>
<rect x="44" y="110" width="11" height="11" rx="2" fill="#161b22"><title>2025-08-01: 0 contributions</title></rect>
<rect x="44" y="124" width="11" height="11" rx="2" fill="#161b22"><title>2025-08-02: 0 contributions</title></rect>
<rect x="58" y="40" width="11" height="11" rx="2" fill="#161b22"><title>2025-08-03: 0 contributions</title></rect>
<rect x="58" y="54" width="11" height="11" rx="2" fill="#161b22"><title>2025-08-04: 0 contributions</title></rect>
<rect x="58" y="68" width="11" height="11" rx="2" fill="#161b22"><title>2025-08-05: 0 contributions</title></rect>
<rect x="58" y="82" width="11" height="11" rx="2" fill="#161b22"><title>2025-08-06: 0 contributions</title></rect>
<rect x="58" y="96" width="11" height="11" rx="2" fill="#161b22"><title>2025-08-07: 0 contributions</title></rect>
<rect x="58" y="110" width="11" height="11" rx="2" fill="#161b22"><title>2025-08-08: 0 contributions</title></rect>
<rect x="58" y="124" width="11" height="11" rx="2" fill="#161b22"><title>2025-08-09: 0 contributions</title></rect>
<rect x="72" y="40" width="11" height="11" rx="2" fill="#161b22"><title>2025-08-10: 0 contributions</title></rect>
<rect x="72" y="54" width="11" height="11" rx="2" fill="#161b22"><title>2025-08-11: 0 contributions</title></rect>
<rect x="72" y="68" width="11" height="11" rx="2" fill="#161b22"><title>2025-08-12: 0 contributions</title></rect>
<rect x="72" y="82" width="11" height="11" rx="2" fill="#161b22"><title>2025-08-13: 0 contributions</title></rect>
<rect x="72" y="96" width="11" height="11" rx="2" fill="#161b22"><title>2025-08-14: 0 contributions</title></rect>
<rect x="72" y="110" width="11" height="11" rx="2" fill="#161b22"><title>2025-08-15: 0 contributions</title></rect>
<rect x="72" y="124" width="11" height="11" rx="2" fill="#161b22"><title>2025-08-16: 0 contributions</title></rect>
<rect x="86" y="40" width="11" height="11" rx="2" fill="#161b22"><title>2025-08-17: 0 contributions</title></rect>
<rect x="86" y="54" width="11" height="11" rx="2" fill="#161b22"><title>2025-08-18: 0 contributions</title></rect>
<rect x="86" y="68" width="11" height="11" rx="2" fill="#161b22"><title>2025-08-19: 0 contributions</title></rect>
<rect x="86" y="82" width="11" height="11" rx="2" fill="#161b22"><title>2025-08-20: 0 contributions</title></rect>
<rect x="86" y="96" width="11" height="11" rx="2" fill="#161b22"><title>2025-08-21: 0 contributions</title></rect>
<rect x="86" y="110" width="11" height="11" rx="2" fill="#161b22"><title>2025-08-22: 0 contributions</title></rect>
<rect x="86" y="124" width="11" height="11" rx="2" fill="#161b22"><title>2025-08-23: 0 contributions</title></rect>
<rect x="100" y="40" width="11" height="11" rx="2" fill="#161b22"><title>2025-08-24: 0 contributions</title></rect>
<rect x="100" y="54" width="11" height="11" rx="2" fill="#161b22"><title>2025-08-25: 0 contributions</title></rect>
<rect x="100" y="68" width="11" height="11" rx="2" fill="#161b22"><title>2025-08-26: 0 contributions</title></rect>
<rect x="100" y="82" width="11" height="11" rx="2" fill="#161b22"><title>2025-08-27: 0 contributions</title></rect>
<rect x="100" y="96" width="11" height="11" rx="2" fill="#161b22"><title>2025-08-28: 0 contributions</title></rect>
<rect x="100" y="110" width="11" height="11" rx="2" fill="#161b22"><title>2025-08-29: 0 contributions</title></rect>
<rect x="100" y="124" width="11" height="11" rx="2" fill="#161b22"><title>2025-08-30: 0 contributions</title></rect>
<rect x="114" y="40" width="11" height="11" rx="2" fill="#161b22"><title>2025-08-31: 0 contributions</title></rect>
<rect x="114" y="54" width="11" height="11" rx="2" fill="#161b22"><title>2025-09-01: 0 contributions</title></rect>
<rect x="114" y="68" width="11" height="11" rx="2" fill="#161b22"><title>2025-09-02: 0 contributions</title></rect>
<rect x="114" y="82" width="11" height="11" rx="2" fill="#161b22"><title>2025-09-03: 0 contributions</title></rect>
<rect x="114" y="96" width="11" height="11" rx="2" fill="#161b22"><title>2025-09-04: 0 contributions</title></rect>
<rect x="114" y="110" width="11" height="11" rx="2" fill="#161b22"><title>2025-09-05: 0 contributions</title></rect>
<rect x="114" y="124" width="11" height="11" rx="2" fill="#161b22"><title>2025-09-06: 0 contributions</title></rect>
<rect x="128" y="40" width="11" height="11" rx="2" fill="#161b22"><title>2025-09-07: 0 contributions</title></rect>
<rect x="128" y="54" width="11" height="11" rx="2" fill="#161b22"><title>2025-09-08: 0 contributions</title></rect>
<rect x="128" y="68" width="11" height="11" rx="2" fill="#161b22"><title>2025-09-09: 0 contributions</title></rect>
<rect x="128" y="82" width="11" height="11" rx="2" fill="#161b22"><title>2025-09-10: 0 contributions</title></rect>
<rect x="128" y="96" width="11" height="11" rx="2" fill="#161b22"><title>2025-09-11: 0 contributions</title></rect>
<rect x="128" y="110" width="11" height="11" rx="2" fill="#161b22"><title>2025-09-12: 0 contributions</title></rect>
<rect x="128" y="124" width="11" height="11" rx="2" fill="#161b22"><title>2025-09-13: 0 contributions</title></rect>
<rect x="142" y="40" width="11" height="11" rx="2" fill="#161b22"><title>2025-09-14: 0 contributions</title></rect>
<rect x="142" y="54" width="11" height="11" rx="2" fill="#161b22"><title>2025-09-15: 0 contributions</title></rect>
<rect x="142" y="68" width="11" height="11" rx="2" fill="#161b22"><title>2025-09-16: 0 contributions</title></rect>
<rect x="142" y="82" width="11" height="11" rx="2" fill="#161b22"><title>2025-09-17: 0 contributions</title></rect>
<rect x="142" y="96" width="11" height="11" rx="2" fill="#161b22"><title>2025-09-18: 0 contributions</title></rect>
<rect x="142" y="110" width="11" height="11" rx="2" fill="#161b22"><title>2025-09-19: 0 contributions</title></rect>
<rect x="142" y="124" width="11" height="11" rx="2" fill="#161b22"><title>2025-09-20: 0 contributions</title></rect>
<rect x="156" y="40" width="11" height="11" rx="2" fill="#161b22"><title>2025-09-21: 0 contributions</title></rect>
<rect x="156" y="54" width="11" height="11" rx="2" fill="#161b22"><title>2025-09-22: 0 contributions</title></rect>
<rect x="156" y="68" width="11" height="11" rx="2" fill="#161b22"><title>2025-09-23: 0 contributions</title></rect>
<rect x="156" y="82" width="11" height="11" rx="2" fill="#161b22"><title>2025-09-24: 0 contributions</title></rect>
<rect x="156" y="96" width="11" height="11" rx="2" fill="#161b22"><title>2025-09-25: 0 contributions</title></rect>
<rect x="156" y="110" width="11" height="11" rx="2" fill="#161b22"><title>2025-09-26: 0 contributions</title></rect>
<rect x="156" y="124" width="11" height="11" rx="2" fill="#161b22"><title>2025-09-27: 0 contributions</title></rect>
<rect x="170" y="40" width="11" height="11" rx="2" fill="#161b22"><title>2025-09-28: 0 contributions</title></rect>
<rect x="170" y="54" width="11" height="11" rx="2" fill="#161b22"><title>2025-09-29: 0 contributions</title></rect>
<rect x="170" y="68" width="11" height="11" rx="2" fill="#161b22"><title>2025-09-30: 0 contributions</title></rect>
<rect x="170" y="82" width="11" height="11" rx="2" fill="#161b22"><title>2025-10-01: 0 contributions</title></rect>
<rect x="170" y="96" width="11" height="11" rx="2" fill="#161b22"><title>2025-10-02: 0 contributions</title></rect>
<rect x="170" y="110" width="11" height="11" rx="2" fill="#161b22"><title>2025-10-03: 0 contributions</title></rect>
<rect x="170" y="124" width="11" height="11" rx="2" fill="#161b22"><title>2025-10-04: 0 contributions</title></rect>
<rect x="184" y="40" width="11" height="11" rx="2" fill="#161b22"><title>2025-10-05: 0 contributions</title></rect>
<rect x="184" y="54" width="11" height="11" rx="2" fill="#161b22"><title>2025-10-06: 0 contributions</title></rect>
<rect x="184" y="68" width="11" height="11" rx="2" fill="#161b22"><title>2025-10-07: 0 contributions</title></rect>
<rect x="184" y="82" width="11" height="11" rx="2" fill="#161b22"><title>2025-10-08: 0 contributions</title></rect>
<rect x="184" y="96" width="11" height="11" rx="2" fill="#161b22"><title>2025-10-09: 0 contributions</title></rect>
<rect x="184" y="110" width="11" height="11" rx="2" fill="#161b22"><title>2025-10-10: 0 contributions</title></rect>
<rect x="184" y="124" width="11" height="11" rx="2" fill="#161b22"><title>2025-10-11: 0 contributions</title></rect>
<rect x="198" y="40" width="11" height="11" rx="2" fill="#161b22"><title>2025-10-12: 0 contributions</title></rect>
<rect x="198" y="54" width="11" height="11" rx="2" fill="#161b22"><title>2025-10-13: 0 contributions</title></rect>
<rect x="198" y="68" width="11" height="11" rx="2" fill="#161b22"><title>2025-10-14: 0 contributions</title></rect>
<rect x="198" y="82" width="11" height="11" rx="2" fill="#161b22"><title>2025-10-15: 0 contributions</title></rect>
<rect x="198" y="96" width="11" height="11" rx="2" fill="#161b22"><title>2025-10-16: 0 contributions</title></rect>
<rect x="198" y="110" width="11" height="11" rx="2" fill="#161b22"><title>2025-10-17: 0 contributions</title></rect>
<rect x="198" y="124" width="11" height="11" rx="2" fill="#161b22"><title>2025-10-18: 0 contributions</title></rect>
<rect x="212" y="40" width="11" height="11" rx="2" fill="#161b22"><title>2025-10-19: 0 contributions</title></rect>
<rect x="212" y="54" width="11" height="11" rx="2" fill="#161b22"><title>2025-10-20: 0 contributions</title></rect>
<rect x="212" y="68" width="11" height="11" rx="2" fill="#161b22"><title>2025-10-21: 0 contributions</title></rect>
<rect x="212" y="82" width="11" height="11" rx="2" fill="#161b22"><title>2025-10-22: 0 contributions</title></rect>
<rect x="212" y="96" width="11" height="11" rx="2" fill="#161b22"><title>2025-10-23: 0 contributions</title></rect>
<rect x="212" y="110" width="11" height="11" rx="2" fill="#161b22"><title>2025-10-24: 0 contributions</title></rect>
<rect x="212" y="124" width="11" height="11" rx="2" fill="#161b22"><title>2025-10-25: 0 contributions</title></rect>
<rect x="226" y="40" width="11" height="11" rx="2" fill="#161b22"><title>2025-10-26: 0 contributions</title></rect>
<rect x="226" y="54" width="11" height="11" rx="2" fill="#161b22"><title>2025-10-27: 0 contributions</title></rect>
<rect x="226" y="68" width="11" height="11" rx="2" fill="#161b22"><title>2025-10-28: 0 contributions</title></rect>
<rect x="226" y="82" width="11" height="11" rx="2" fill="#161b22"><title>2025-10-29: 0 contributions</title></rect>
<rect x="226" y="96" width="11" height="11" rx="2" fill="#161b22"><title>2025-10-30: 0 contributions</title></rect>
<rect x="226" y="110" width="11" height="11" rx="2" fill="#161b22"><title>2025-10-31: 0 contributions</title></rect>
<rect x="226" y="124" width="11" height="11" rx="2" fill="#161b22"><title>2025-11-01: 0 contributions</title></rect>
<rect x="240" y="40" width="11" height="11" rx="2" fill="#161b22"><title>2025-11-02: 0 contributions</title></rect>
<rect x="240" y="54" width="11" height="11" rx="2" fill="#161b22"><title>2025-11-03: 0 contributions</title></rect>
<rect x="240" y="68" width="11" height="11" rx="2" fill="#161b22"><title>2025-11-04: 0 contributions</title></rect>
<rect x="240" y="82" width="11" height="11" rx="2" fill="#161b22"><title>2025-11-05: 0 contributions</title></rect>
<rect x="240" y="96" width="11" height="11" rx="2" fill="#161b22"><title>2025-11-06: 0 contributions</title></rect>
<rect x="240" y="110" width="11" height="11" rx="2" fill="#161b22"><title>2025-11-07: 0 contributions</title></rect>
<rect x="240" y="124" width="11" height="11" rx="2" fill="#161b22"><title>2025-11-08: 0 contributions</title></rect>
<rect x="254" y="40" width="11" height="11" rx="2" fill="#161b22"><title>2025-11-09: 0 contributions</title></rect>
<rect x="254" y="54" width="11" height="11" rx="2" fill="#161b22"><title>2025-11-10: 0 contributions</title></rect>
<rect x="254" y="68" width="11" height="11" rx="2" fill="#161b22"><title>2025-11-11: 0 contributions</title></rect>
<rect x="254" y="82" width="11" height="11" rx="2" fill="#161b22"><title>2025-11-12: 0 contributions</title></rect>
<rect x="254" y="96" width="11" height="11" rx="2" fill="#161b22"><title>2025-11-13: 0 contributions</title></rect>
<rect x="254" y="110" width="11" height="11" rx="2" fill="#161b22"><title>2025-11-14: 0 contributions</title></rect>
<rect x="254" y="124" width="11" height="11" rx="2" fill="#161b22"><title>2025-11-15: 0 contributions</title></rect>
<rect x="268" y="40" width="11" height="11" rx="2" fill="#161b22"><title>2025-11-16: 0 contributions</title></rect>
<rect x="268" y="54" width="11" height="11" rx="2" fill="#161b22"><title>2025-11-17: 0 contributions</title></rect>
<rect x="268" y="68" width="11" height="11" rx="2" fill="#161b22"><title>2025-11-18: 0 contributions</title></rect>
<rect x="268" y="82" width="11" height="11" rx="2" fill="#161b22"><title>2025-11-19: 0 contributions</title></rect>
<rect x="268" y="96" width="11" height="11" rx="2" fill="#161b22"><title>2025-11-20: 0 contributions</title></rect>
<rect x="268" y="110" width="11" height="11" rx="2" fill="#161b22"><title>2025-11-21: 0 contributions</title></rect>
<rect x="268" y="124" width="11" height="11" rx="2" fill="#161b22"><title>2025-11-22: 0 contributions</title></rect>
<rect x="282" y="40" width="11" height="11" rx="2" fill="#161b22"><title>2025-11-23: 0 contributions</title></rect>
<rect x="282" y="54" width="11" height="11" rx="2" fill="#161b22"><title>2025-11-24: 0 contributions</title></rect>
<rect x="282" y="68" width="11" height="11" rx="2" fill="#161b22"><title>2025-11-25: 0 contributions</title></rect>
<rect x="282" y="82" width="11" height="11" rx="2" fill="#161b22"><title>2025-11-26: 0 contributions</title></rect>
<rect x="282" y="96" width="11" height="11" rx="2" fill="#161b22"><title>2025-11-27: 0 contributions</title></rect>
<rect x="282" y="110" width="11" height="11" rx="2" fill="#161b22"><title>2025-11-28: 0 contributions</title></rect>
<rect x="282" y="124" width="11" height="11" rx="2" fill="#161b22"><title>2025-11-29: 0 contributions</title></rect>
<rect x="296" y="40" width="11" height="11" rx="2" fill="#161b22"><title>2025-11-30: 0 contributions</title></rect>
<rect x="296" y="54" width="11" height="11" rx="2" fill="#161b22"><title>2025-12-01: 0 contributions</title></rect>
<rect x="296" y="68" width="11" height="11" rx="2" fill="#161b22"><title>2025-12-02: 0 contributions</title></rect>
<rect x="296" y="82" width="11" height="11" rx="2" fill="#161b22"><title>2025-12-03: 0 contributions</title></rect>
<rect x="296" y="96" width="11" height="11" rx="2" fill="#161b22"><title>2025-12-04: 0 contributions</title></rect>
<rect x="296" y="110" width="11" height="11" rx="2" fill="#161b22"><title>2025-12-05: 0 contributions</title></rect>
<rect x="296" y="124" width="11" height="11" rx="2" fill="#161b22"><title>2025-12-06: 0 contributions</title></rect>
<rect x="310" y="40" width="11" height="11" rx="2" fill="#161b22"><title>2025-12-07: 0 contributions</title></rect>
<rect x="310" y="54" width="11" height="11" rx="2" fill="#161b22"><title>2025-12-08: 0 contributions</title></rect>
<rect x="310" y="68" width="11" height="11" rx="2" fill="#161b22"><title>2025-12-09: 0 contributions</title></rect>
<rect x="310" y="82" width="11" height="11" rx="2" fill="#161b22"><title>2025-12-10: 0 contributions</title></rect>
<rect x="310" y="96" width="11" height="11" rx="2" fill="#161b22"><title>2025-12-11: 0 contributions</title></rect>
<rect x="310" y="110" width="11" height="11" rx="2" fill="#161b22"><title>2025-12-12: 0 contributions</title></rect>
<rect x="310" y="124" width="11" height="11" rx="2" fill="#161b22"><title>2025-12-13: 0 contributions</title></rect>
<rect x="324" y="40" width="11" height="11" rx="2" fill="#161b22"><title>2025-12-14: 0 contributions</title></rect>
<rect x="324" y="54" width="11" height="11" rx="2" fill="#161b22"><title>2025-12-15: 0 contributions</title></rect>
<rect x="324" y="68" width="11" height="11" rx="2" fill="#161b22"><title>2025-12-16: 0 contributions</title></rect>
<rect x="324" y="82" width="11" height="11" rx="2" fill="#161b22"><title>2025-12-17: 0 contributions</title></rect>
<rect x="324" y="96" width="11" height="11" rx="2" fill="#161b22"><title>2025-12-18: 0 contributions</title></rect>
<rect x="324" y="110" width="11" height="11" rx="2" fill="#161b22"><title>2025-12-19: 0 contributions</title></rect>
<rect x="324" y="124" width="11" height="11" rx="2" fill="#161b22"><title>2025-12-20: 0 contributions</title></rect>
<rect x="338" y="40" width="11" height="11" rx="2" fill="#161b22"><title>2025-12-21: 0 contributions</title></rect>
<rect x="338" y="54" width="11" height="11" rx="2" fill="#161b22"><title>2025-12-22: 0 contributions</title></rect>
<rect x="338" y="68" width="11" height="11" rx="2" fill="#161b22"><title>2025-12-23: 0 contributions</title></rect>
<rect x="338" y="82" width="11" height="11" rx="2" fill="#161b22"><title>2025-12-24: 0 contributions</title></rect>
<rect x="338" y="96" width="11" height="11" rx="2" fill="#161b22"><title>2025-12-25: 0 contributions</title></rect>
<rect x="338" y="110" width="11" height="11" rx="2" fill="#161b22"><title>2025-12-26: 0 contributions</title></rect>
<rect x="338" y="124" width="11" height="11" rx="2" fill="#161b22"><title>2025-12-27: 0 contributions</title></rect>
<rect x="352" y="40" width="11" height="11" rx="2" fill="#161b22"><title>2025-12-28: 0 contributions</title></rect>
<rect x="352" y="54" width="11" height="11" rx="2" fill="#161b22"><title>2025-12-29: 0 contributions</title></rect>
<rect x="352" y="68" width="11" height="11" rx="2" fill="#161b22"><title>2025-12-30: 0 contributions</title></rect>
<rect x="352" y="82" width="11" height="11" rx="2" fill="#161b22"><title>2025-12-31: 0 contributions</title></rect>
<rect x="352" y="96" width="11" height="11" rx="2" fill="#161b22"><title>2026-01-01: 0 contributions</title></rect>
<rect x="352" y="110" width="11" height="11" rx="2" fill="#161b22"><title>2026-01-02: 0 contributions</title></rect>
<rect x="352" y="124" width="11" height="11" rx="2" fill="#161b22"><title>2026-01-03: 0 contributions</title></rect>
<rect x="366" y="40" width="11" height="11" rx="2" fill="#161b22"><title>2026-01-04: 0 contributions</title></rect>
<rect x="366" y="54" width="11" height="11" rx="2" fill="#161b22"><title>2026-01-05: 0 contributions</title></rect>
<rect x="366" y="68" width="11" height="11" rx="2" fill="#161b22"><title>2026-01-06: 0 contributions</title></rect>
<rect x="366" y="82" width="11" height="11" rx="2" fill="#161b22"><title>2026-01-07: 0 contributions</title></rect>
<rect x="366" y="96" width="11" height="11" rx="2" fill="#161b22"><title>2026-01-08: 0 contributions</title></rect>
<rect x="366" y="110" width="11" height="11" rx="2" fill="#161b22"><title>2026-01-09: 0 contributions</title></rect>
<rect x="366" y="124" width="11" height="11" rx="2" fill="#161b22"><title>2026-01-10: 0 contributions</title></rect>
<rect x="380" y="40" width="11" height="11" rx="2" fill="#161b22"><title>2026-01-11: 0 contributions</title></rect>
<rect x="380" y="54" width="11" height="11" rx="2" fill="#161b22"><title>2026-01-12: 0 contributions</title></rect>
<rect x="380" y="68" width="11" height="11" rx="2" fill="#161b22"><title>2026-01-13: 0 contributions</title></rect>
<rect x="380" y="82" width="11" height="11" rx="2" fill="#161b22"><title>2026-01-14: 0 contributions</title></rect>
<rect x="380" y="96" width="11" height="11" rx="2" fill="#161b22"><title>2026-01-15: 0 contributions</title></rect>
<rect x="380" y="110" width="11" height="11" rx="2" fill="#161b22"><title>2026-01-16: 0 contributions</title></rect>
<rect x="380" y="124" width="11" height="11" rx="2" fill="#161b22"><title>2026-01-17: 0 contributions</title></rect>
<rect x="394" y="40" width="11" height="11" rx="2" fill="#161b22"><title>2026-01-18: 0 contributions</title></rect>
<rect x="394" y="54" width="11" height="11" rx="2" fill="#161b22"><title>2026-01-19: 0 contributions</title></rect>
<rect x="394" y="68" width="11" height="11" rx="2" fill="#161b22"><title>2026-01-20: 0 contributions</title></rect>
<rect x="394" y="82" width="11" height="11" rx="2" fill="#161b22"><title>2026-01-21: 0 contributions</title></rect>
<rect x="394" y="96" width="11" height="11" rx="2" fill="#161b22"><title>2026-01-22: 0 contributions</title></rect>
<rect x="394" y="110" width="11" height="11" rx="2" fill="#161b22"><title>2026-01-23: 0 contributions</title></rect>
<rect x="394" y="124" width="11" height="11" rx="2" fill="#161b22"><title>2026-01-24: 0 contributions</title></rect>
<rect x="408" y="40" width="11" height="11" rx="2" fill="#161b22"><title>2026-01-25: 0 contributions</title></rect>
<rect x="408" y="54" width="11" height="11" rx="2" fill="#161b22"><title>2026-01-26: 0 contributions</title></rect>
<rect x="408" y="68" width="11" height="11" rx="2" fill="#161b22"><title>2026-01-27: 0 contributions</title></rect>
<rect x="408" y="82" width="11" height="11" rx="2" fill="#161b22"><title>2026-01-28: 0 contributions</title></rect>
<rect x="408" y="96" width="11" height="11" rx="2" fill="#161b22"><title>2026-01-29: 0 contributions</title></rect>
<rect x="408" y="110" width="11" height="11" rx="2" fill="#161b22"><title>2026-01-30: 0 contributions</title></rect>
<rect x="408" y="124" width="11" height="11" rx="2" fill="#161b22"><title>2026-01-31: 0 contributions</title></rect>
<rect x="422" y="40" width="11" height="11" rx="2" fill="#161b22"><title>2026-02-01: 0 contributions</title></rect>
<rect x="422" y="54" width="11" height="11" rx="2" fill="#161b22"><title>2026-02-02: 0 contributions</title></rect>
<rect x="422" y="68" width="11" height="11" rx="2" fill="#161b22"><title>2026-02-03: 0 contributions</title></rect>
<rect x="422" y="82" width="11" height="11" rx="2" fill="#161b22"><title>2026-02-04: 0 contributions</title></rect>
<rect x="422" y="96" width="11" height="11" rx="2" fill="#161b22"><title>2026-02-05: 0 contributions</title></rect>
<rect x="422" y="110" width="11" height="11" rx="2" fill="#161b22"><title>2026-02-06: 0 contributions</title></rect>
<rect x="422" y="124" width="11" height="11" rx="2" fill="#161b22"><title>2026-02-07: 0 contributions</title></rect>
<rect x="436" y="40" width="11" height="11" rx="2" fill="#161b22"><title>2026-02-08: 0 contributions</title></rect>
<rect x="436" y="54" width="11" height="11" rx="2" fill="#161b22"><title>2026-02-09: 0 contributions</title></rect>
<rect x="436" y="68" width="11" height="11" rx="2" fill="#161b22"><title>2026-02-10: 0 contributions</title></rect>
<rect x="436" y="82" width="11" height="11" rx="2" fill="#161b22"><title>2026-02-11: 0 contributions</title></rect>
<rect x="436" y="96" width="11" height="11" rx="2" fill="#161b22"><title>2026-02-12: 0 contributions</title></rect>
<rect x="436" y="110" width="11" height="11" rx="2" fill="#161b22"><title>2026-02-13: 0 contributions</title></rect>
<rect x="436" y="124" width="11" height="11" rx="2" fill="#161b22"><title>2026-02-14: 0 contributions</title></rect>
<rect x="450" y="40" width="11" height="11" rx="2" fill="#161b22"><title>2026-02-15: 0 contributions</title></rect>
<rect x="450" y="54" width="11" height="11" rx="2" fill="#161b22"><title>2026-02-16: 0 contributions</title></rect>
<rect x="450" y="68" width="11" height="11" rx="2" fill="#161b22"><title>2026-02-17: 0 contributions</title></rect>
<rect x="450" y="82" width="11" height="11" rx="2" fill="#0e4429"><title>2026-02-18: 5 contributions</title></rect>
<rect x="450" y="96" width="11" height="11" rx="2" fill="#161b22"><title>2026-02-19: 0 contributions</title></rect>
<rect x="450" y="110" width="11" height="11" rx="2" fill="#161b22"><title>2026-02-20: 0 contributions</title></rect>
<rect x="450" y="124" width="11" height="11" rx="2" fill="#0e4429"><title>2026-02-21: 4 contributions</title></rect>
<rect x="464" y="40" width="11" height="11" rx="2" fill="#161b22"><title>2026-02-22: 0 contributions</title></rect>
<rect x="464" y="54" width="11" height="11" rx="2" fill="#161b22"><title>2026-02-23: 0 contributions</title></rect>
<rect x="464" y="68" width="11" height="11" rx="2" fill="#161b22"><title>2026-02-24: 0 contributions</title></rect>
<rect x="464" y="82" width="11" height="11" rx="2" fill="#161b22"><title>2026-02-25: 0 contributions</title></rect>
<rect x="464" y="96" width="11" height="11" rx="2" fill="#161b22"><title>2026-02-26: 0 contributions</title></rect>
<rect x="464" y="110" width="11" height="11" rx="2" fill="#161b22"><title>2026-02-27: 0 contributions</title></rect>
<rect x="464" y="124" width="11" height="11" rx="2" fill="#0e4429"><title>2026-02-28: 4 contributions</title></rect>
<rect x="478" y="40" width="11" height="11" rx="2" fill="#161b22"><title>2026-03-01: 0 contributions</title></rect>
<rect x="478" y="54" width="11" height="11" rx="2" fill="#161b22"><title>2026-03-02: 0 contributions</title></rect>
<rect x="478" y="68" width="11" height="11" rx="2" fill="#161b22"><title>2026-03-03: 0 contributions</title></rect>
<rect x="478" y="82" width="11" height="11" rx="2" fill="#161b22"><title>2026-03-04: 0 contributions</title></rect>
<rect x="478" y="96" width="11" height="11" rx="2" fill="#161b22"><title>2026-03-05: 0 contributions</title></rect>
<rect x="478" y="110" width="11" height="11" rx="2" fill="#161b22"><title>2026-03-06: 0 contributions</title></rect>
<rect x="478" y="124" width="11" height="11" rx="2" fill="#161b22"><title>2026-03-07: 0 contributions</title></rect>
<rect x="492" y="40" width="11" height="11" rx="2" fill="#161b22"><title>2026-03-08: 0 contributions</title></rect>
<rect x="492" y="54" width="11" height="11" rx="2" fill="#161b22"><title>2026-03-09: 0 contributions</title></rect>
<rect x="492" y="68" width="11" height="11" rx="2" fill="#161b22"><title>2026-03-10: 0 contributions</title></rect>
<rect x="492" y="82" width="11" height="11" rx="2" fill="#161b22"><title>2026-03-11: 0 contributions</title></rect>
<rect x="492" y="96" width="11" height="11" rx="2" fill="#161b22"><title>2026-03-12: 0 contributions</title></rect>
<rect x="492" y="110" width="11" height="11" rx="2" fill="#161b22"><title>2026-03-13: 0 contributions</title></rect>
<rect x="492" y="124" width="11" height="11" rx="2" fill="#161b22"><title>2026-03-14: 0 contributions</title></rect>
<rect x="506" y="40" width="11" height="11" rx="2" fill="#161b22"><title>2026-03-15: 0 contributions</title></rect>
<rect x="506" y="54" width="11" height="11" rx="2" fill="#161b22"><title>2026-03-16: 0 contributions</title></rect>
<rect x="506" y="68" width="11" height="11" rx="2" fill="#161b22"><title>2026-03-17: 0 contributions</title></rect>
<rect x="506" y="82" width="11" height="11" rx="2" fill="#161b22"><title>2026-03-18: 0 contributions</title></rect>
<rect x="506" y="96" width="11" height="11" rx="2" fill="#161b22"><title>2026-03-19: 0 contributions</title></rect>
<rect x="506" y="110" width="11" height="11" rx="2" fill="#161b22"><title>2026-03-20: 0 contributions</title></rect>
<rect x="506" y="124" width="11" height="11" rx="2" fill="#161b22"><title>2026-03-21: 0 contributions</title></rect>
<rect x="520" y="40" width="11" height="11" rx="2" fill="#161b22"><title>2026-03-22: 0 contributions</title></rect>
<rect x="520" y="54" width="11" height="11" rx="2" fill="#161b22"><title>2026-03-23: 0 contributions</title></rect>
<rect x="520" y="68" width="11" height="11" rx="2" fill="#161b22"><title>2026-03-24: 0 contributions</title></rect>
<rect x="520" y="82" width="11" height="11" rx="2" fill="#161b22"><title>2026-03-25: 0 contributions</title></rect>
<rect x="520" y="96" width="11" height="11" rx="2" fill="#161b22"><title>2026-03-26: 0 contributions</title></rect>
<rect x="520" y="110" width="11" height="11" rx="2" fill="#161b22"><title>2026-03-27: 0 contributions</title></rect>
<rect x="520" y="124" width="11" height="11" rx="2" fill="#161b22"><title>2026-03-28: 0 contributions</title></rect>
<rect x="534" y="40" width="11" height="11" rx="2" fill="#161b22"><title>2026-03-29: 0 contributions</title></rect>
<rect x="534" y="54" width="11" height="11" rx="2" fill="#161b22"><title>2026-03-30: 0 contributions</title></rect>
<rect x="534" y="68" width="11" height="11" rx="2" fill="#161b22"><title>2026-03-31: 0 contributions</title></rect>
<rect x="534" y="82" width="11" height="11" rx="2" fill="#161b22"><title>2026-04-01: 0 contributions</title></rect>
<rect x="534" y="96" width="11" height="11" rx="2" fill="#161b22"><title>2026-04-02: 0 contributions</title></rect>
<rect x="534" y="110" width="11" height="11" rx="2" fill="#161b22"><title>2026-04-03: 0 contributions</title></rect>
<rect x="534" y="124" width="11" height="11" rx="2" fill="#161b22"><title>2026-04-04: 0 contributions</title></rect>
<rect x="548" y="40" width="11" height="11" rx="2" fill="#161b22"><title>2026-04-05: 0 contributions</title></rect>
<rect x="548" y="54" width="11" height="11" rx="2" fill="#161b22"><title>2026-04-06: 0 contributions</title></rect>
<rect x="548" y="68" width="11" height="11" rx="2" fill="#161b22"><title>2026-04-07: 0 contributions</title></rect>
<rect x="548" y="82" width="11" height="11" rx="2" fill="#161b22"><title>2026-04-08: 0 contributions</title></rect>
<rect x="548" y="96" width="11" height="11" rx="2" fill="#161b22"><title>2026-04-09: 0 contributions</title></rect>
<rect x="548" y="110" width="11" height="11" rx="2" fill="#161b22"><title>2026-04-10: 0 contributions</title></rect>
<rect x="548" y="124" width="11" height="11" rx="2" fill="#161b22"><title>2026-04-11: 0 contributions</title></rect>
<rect x="562" y="40" width="11" height="11" rx="2" fill="#161b22"><title>2026-04-12: 0 contributions</title></rect>
<rect x="562" y="54" width="11" height="11" rx="2" fill="#161b22"><title>2026-04-13: 0 contributions</title></rect>
<rect x="562" y="68" width="11" height="11" rx="2" fill="#161b22"><title>2026-04-14: 0 contributions</title></rect>
<rect x="562" y="82" width="11" height="11" rx="2" fill="#161b22"><title>2026-04-15: 0 contributions</title></rect>
<rect x="562" y="96" width="11" height="11" rx="2" fill="#161b22"><title>2026-04-16: 0 contributions</title></rect>
<rect x="562" y="110" width="11" height="11" rx="2" fill="#161b22"><title>2026-04-17: 0 contributions</title></rect>
<rect x="562" y="124" width="11" height="11" rx="2" fill="#161b22"><title>2026-04-18: 0 contributions</title></rect>
<rect x="576" y="40" width="11" height="11" rx="2" fill="#161b22"><title>2026-04-19: 0 contributions</title></rect>
<rect x="576" y="54" width="11" height="11" rx="2" fill="#161b22"><title>2026-04-20: 0 contributions</title></rect>
<rect x="576" y="68" width="11" height="11" rx="2" fill="#161b22"><title>2026-04-21: 0 contributions</title></rect>
<rect x="576" y="82" width="11" height="11" rx="2" fill="#161b22"><title>2026-04-22: 0 contributions</title></rect>
<rect x="576" y="96" width="11" height="11" rx="2" fill="#161b22"><title>2026-04-23: 0 contributions</title></rect>
<rect x="576" y="110" width="11" height="11" rx="2" fill="#161b22"><title>2026-04-24: 0 contributions</title></rect>
<rect x="576" y="124" width="11" height="11" rx="2" fill="#161b22"><title>2026-04-25: 0 contributions</title></rect>
<rect x="590" y="40" width="11" height="11" rx="2" fill="#161b22"><title>2026-04-26: 0 contributions</title></rect>
<rect x="590" y="54" width="11" height="11" rx="2" fill="#161b22"><title>2026-04-27: 0 contributions</title></rect>
<rect x="590" y="68" width="11" height="11" rx="2" fill="#161b22"><title>2026-04-28: 0 contributions</title></rect>
<rect x="590" y="82" width="11" height="11" rx="2" fill="#161b22"><title>2026-04-29: 0 contributions</title></rect>
<rect x="590" y="96" width="11" height="11" rx="2" fill="#39d353"><title>2026-04-30: 35 contributions</title></rect>
<rect x="590" y="110" width="11" height="11" rx="2" fill="#161b22"><title>2026-05-01: 0 contributions</title></rect>
<rect x="590" y="124" width="11" height="11" rx="2" fill="#161b22"><title>2026-05-02: 0 contributions</title></rect>
<rect x="604" y="40" width="11" height="11" rx="2" fill="#161b22"><title>2026-05-03: 0 contributions</title></rect>
<rect x="604" y="54" width="11" height="11" rx="2" fill="#161b22"><title>2026-05-04: 0 contributions</title></rect>
<rect x="604" y="68" width="11" height="11" rx="2" fill="#161b22"><title>2026-05-05: 0 contributions</title></rect>
<rect x="604" y="82" width="11" height="11" rx="2" fill="#161b22"><title>2026-05-06: 0 contributions</title></rect>
<rect x="604" y="96" width="11" height="11" rx="2" fill="#161b22"><title>2026-05-07: 0 contributions</title></rect>
<rect x="604" y="110" width="11" height="11" rx="2" fill="#161b22"><title>2026-05-08: 0 contributions</title></rect>
<rect x="604" y="124" width="11" height="11" rx="2" fill="#161b22"><title>2026-05-09: 0 contributions</title></rect>
<rect x="618" y="40" width="11" height="11" rx="2" fill="#161b22"><title>2026-05-10: 0 contributions</title></rect>
<rect x="618" y="54" width="11" height="11" rx="2" fill="#161b22"><title>2026-05-11: 0 contributions</title></rect>
<rect x="618" y="68" width="11" height="11" rx="2" fill="#161b22"><title>2026-05-12: 0 contributions</title></rect>
<rect x="618" y="82" width="11" height="11" rx="2" fill="#161b22"><title>2026-05-13: 0 contributions</title></rect>
<rect x="618" y="96" width="11" height="11" rx="2" fill="#161b22"><title>2026-05-14: 0 contributions</title></rect>
<rect x="618" y="110" width="11" height="11" rx="2" fill="#161b22"><title>2026-05-15: 0 contributions</title></rect>
<rect x="618" y="124" width="11" height="11" rx="2" fill="#161b22"><title>2026-05-16: 0 contributions</title></rect>
<rect x="632" y="40" width="11" height="11" rx="2" fill="#161b22"><title>2026-05-17: 0 contributions</title></rect>
<rect x="632" y="54" width="11" height="11" rx="2" fill="#161b22"><title>2026-05-18: 0 contributions</title></rect>
<rect x="632" y="68" width="11" height="11" rx="2" fill="#161b22"><title>2026-05-19: 0 contributions</title></rect>
<rect x="632" y="82" width="11" height="11" rx="2" fill="#161b22"><title>2026-05-20: 0 contributions</title></rect>
<rect x="632" y="96" width="11" height="11" rx="2" fill="#161b22"><title>2026-05-21: 0 contributions</title></rect>
<rect x="632" y="110" width="11" height="11" rx="2" fill="#161b22"><title>2026-05-22: 0 contributions</title></rect>
<rect x="632" y="124" width="11" height="11" rx="2" fill="#161b22"><title>2026-05-23: 0 contributions</title></rect>
<rect x="646" y="40" width="11" height="11" rx="2" fill="#161b22"><title>2026-05-24: 0 contributions</title></rect>
<rect x="646" y="54" width="11" height="11" rx="2" fill="#161b22"><title>2026-05-25: 0 contributions</title></rect>
<rect x="646" y="68" width="11" height="11" rx="2" fill="#161b22"><title>2026-05-26: 0 contributions</title></rect>
<rect x="646" y="82" width="11" height="11" rx="2" fill="#161b22"><title>2026-05-27: 0 contributions</title></rect>
<rect x="646" y="96" width="11" height="11" rx="2" fill="#161b22"><title>2026-05-28: 0 contributions</title></rect>
<rect x="646" y="110" width="11" height="11" rx="2" fill="#161b22"><title>2026-05-29: 0 contributions</title></rect>
<rect x="646" y="124" width="11" height="11" rx="2" fill="#161b22"><title>2026-05-30: 0 contributions</title></rect>
<rect x="660" y="40" width="11" height="11" rx="2" fill="#161b22"><title>2026-05-31: 0 contributions</title></rect>
<rect x="660" y="54" width="11" height="11" rx="2" fill="#161b22"><title>2026-06-01: 0 contributions</title></rect>
<rect x="660" y="68" width="11" height="11" rx="2" fill="#161b22"><title>2026-06-02: 0 contributions</title></rect>
<rect x="660" y="82" width="11" height="11" rx="2" fill="#161b22"><title>2026-06-03: 0 contributions</title></rect>
<rect x="660" y="96" width="11" height="11" rx="2" fill="#161b22"><title>2026-06-04: 0 contributions</title></rect>
<rect x="660" y="110" width="11" height="11" rx="2" fill="#161b22"><title>2026-06-05: 0 contributions</title></rect>
<rect x="660" y="124" width="11" height="11" rx="2" fill="#161b22"><title>2026-06-06: 0 contributions</title></rect>
<rect x="674" y="40" width="11" height="11" rx="2" fill="#161b22"><title>2026-06-07: 0 contributions</title></rect>
<rect x="674" y="54" width="11" height="11" rx="2" fill="#161b22"><title>2026-06-08: 0 contributions</title></rect>
<rect x="674" y="68" width="11" height="11" rx="2" fill="#161b22"><title>2026-06-09: 0 contributions</title></rect>
<rect x="674" y="82" width="11" height="11" rx="2" fill="#161b22"><title>2026-06-10: 0 contributions</title></rect>
<rect x="674" y="96" width="11" height="11" rx="2" fill="#161b22"><title>2026-06-11: 0 contributions</title></rect>
<rect x="674" y="110" width="11" height="11" rx="2" fill="#161b22"><title>2026-06-12: 0 contributions</title></rect>
<rect x="674" y="124" width="11" height="11" rx="2" fill="#161b22"><title>2026-06-13: 0 contributions</title></rect>
<rect x="688" y="40" width="11" height="11" rx="2" fill="#161b22"><title>2026-06-14: 0 contributions</title></rect>
<rect x="688" y="54" width="11" height="11" rx="2" fill="#161b22"><title>2026-06-15: 0 contributions</title></rect>
<rect x="688" y="68" width="11" height="11" rx="2" fill="#0e4429"><title>2026-06-16: 3 contributions</title></rect>
<rect x="688" y="82" width="11" height="11" rx="2" fill="#161b22"><title>2026-06-17: 0 contributions</title></rect>
<rect x="688" y="96" width="11" height="11" rx="2" fill="#161b22"><title>2026-06-18: 0 contributions</title></rect>
<rect x="688" y="110" width="11" height="11" rx="2" fill="#161b22"><title>2026-06-19: 0 contributions</title></rect>
<rect x="688" y="124" width="11" height="11" rx="2" fill="#161b22"><title>2026-06-20: 0 contributions</title></rect>
<rect x="702" y="40" width="11" height="11" rx="2" fill="#161b22"><title>2026-06-21: 0 contributions</title></rect>
<rect x="702" y="54" width="11" height="11" rx="2" fill="#161b22"><title>2026-06-22: 0 contributions</title></rect>
<rect x="702" y="68" width="11" height="11" rx="2" fill="#161b22"><title>2026-06-23: 0 contributions</title></rect>
<rect x="702" y="82" width="11" height="11" rx="2" fill="#161b22"><title>2026-06-24: 0 contributions</title></rect>
<rect x="702" y="96" width="11" height="11" rx="2" fill="#161b22"><title>2026-06-25: 0 contributions</title></rect>
<rect x="702" y="110" width="11" height="11" rx="2" fill="#161b22"><title>2026-06-26: 0 contributions</title></rect>
<rect x="702" y="124" width="11" height="11" rx="2" fill="#161b22"><title>2026-06-27: 0 contributions</title></rect>
<rect x="716" y="40" width="11" height="11" rx="2" fill="#161b22"><title>2026-06-28: 0 contributions</title></rect>
<rect x="716" y="54" width="11" height="11" rx="2" fill="#0e4429"><title>2026-06-29: 8 contributions</title></rect>
<rect x="716" y="68" width="11" height="11" rx="2" fill="#0e4429"><title>2026-06-30: 3 contributions</title></rect>
<rect x="716" y="82" width="11" height="11" rx="2" fill="#0e4429"><title>2026-07-01: 7 contributions</title></rect>
<rect x="716" y="96" width="11" height="11" rx="2" fill="#0e4429"><title>2026-07-02: 6 contributions</title></rect>
<rect x="716" y="110" width="11" height="11" rx="2" fill="#0e4429"><title>2026-07-03: 1 contributions</title></rect>
<rect x="716" y="124" width="11" height="11" rx="2" fill="#161b22"><title>2026-07-04: 0 contributions</title></rect>
<rect x="730" y="40" width="11" height="11" rx="2" fill="#161b22"><title>2026-07-05: 0 contributions</title></rect>
<rect x="730" y="54" width="11" height="11" rx="2" fill="#161b22"><title>2026-07-06: 0 contributions</title></rect>
<rect x="730" y="68" width="11" height="11" rx="2" fill="#161b22"><title>2026-07-07: 0 contributions</title></rect>
<rect x="730" y="82" width="11" height="11" rx="2" fill="#0e4429"><title>2026-07-08: 2 contributions</title></rect>
<rect x="730" y="96" width="11" height="11" rx="2" fill="#161b22"><title>2026-07-09: 0 contributions</title></rect>
<rect x="730" y="110" width="11" height="11" rx="2" fill="#161b22"><title>2026-07-10: 0 contributions</title></rect>
<rect x="730" y="124" width="11" height="11" rx="2" fill="#161b22"><title>2026-07-11: 0 contributions</title></rect>
<rect x="744" y="40" width="11" height="11" rx="2" fill="#161b22"><title>2026-07-12: 0 contributions</title></rect>
<rect x="744" y="54" width="11" height="11" rx="2" fill="#161b22"><title>2026-07-13: 0 contributions</title></rect>
<rect x="744" y="68" width="11" height="11" rx="2" fill="#161b22"><title>2026-07-14: 0 contributions</title></rect>
<rect x="744" y="82" width="11" height="11" rx="2" fill="#161b22"><title>2026-07-15: 0 contributions</title></rect>
<rect x="744" y="96" width="11" height="11" rx="2" fill="#161b22"><title>2026-07-16: 0 contributions</title></rect>
<rect x="744" y="110" width="11" height="11" rx="2" fill="#161b22"><title>2026-07-17: 0 contributions</title></rect>
<rect x="744" y="124" width="11" height="11" rx="2" fill="#161b22"><title>2026-07-18: 0 contributions</title></rect>
<rect x="758" y="40" width="11" height="11" rx="2" fill="#161b22"><title>2026-07-19: 0 contributions</title></rect>
<rect x="758" y="54" width="11" height="11" rx="2" fill="#0e4429"><title>2026-07-20: 2 contributions</title></rect>
<text x="20" y="164" font-family="monospace" font-size="12" fill="#c9d1d9">80 contributions in the last year</text>
</svg>